<svg xmlns="http://www.w3.org/2000/svg" x="0px" y="0px"
width="40" height="40"
viewBox="0 0 172 172"
style=" fill:#000000;">
<g fill="none" 
fill-rule="nonzero" 
stroke="none" 
stroke-width="1" 
stroke-linecap="butt" 
stroke-linejoin="miter" 
stroke-miterlimit="10" 
stroke-dasharray="" 
stroke-dashoffset="0" 
font-family="none" 
font-weight="none" 
font-size="none" 
text-anchor="none" 
style="mix-blend-mode: normal">
<path d="M0,172v-172h172v172z" fill="none">
</path>
<g fill="#ecf0f1">
<path d="M32.25,21.5c-5.9125,0 -10.75,4.8375 -10.75,10.75v107.5c0,5.9125 4.8375,10.75 10.75,10.75h107.5c5.9125,0 10.75,-4.8375 10.75,-10.75v-107.5c0,-5.9125 -4.8375,-10.75 -10.75,-10.75zM32.25,25.8h107.5c3.58613,0 6.45,2.86387 6.45,6.45v107.5c0,3.58613 -2.86387,6.45 -6.45,6.45h-27.90801v-43.99101h15.94863l2.98145,-23.1209h-18.93008v-9.85976c0,-2.52793 0.39473,-4.24961 1.22617,-5.24062c0.83145,-0.99941 2.38516,-1.77207 5.95449,-1.77207l12.11055,-0.0084v-20.86172l-1.86445,-0.25195c-1.94844,-0.26035 -7.81895,-0.75586 -14.80645,-0.75586c-7.62578,0 -14.28574,2.35996 -18.99726,7.02109c-4.71992,4.65273 -7.35703,11.50586 -7.35703,19.99668v11.73262h-16.25098v23.1209h16.25098v43.99101h-55.85801c-3.58613,0 -6.45,-2.86387 -6.45,-6.45v-107.5c0,-3.58613 2.86387,-6.45 6.45,-6.45zM114.4623,44.6377c5.88731,0 10.10332,0.38633 12.3709,0.62148v12.64805l-7.81055,0.0084c-4.24961,0 -7.36543,1.075 -9.23828,3.30059c-1.88125,2.22559 -2.24238,5.08106 -2.24238,8.01211v14.15976h18.33379l-1.87285,14.5209h-16.46094v48.29101h-15.13398v-48.29101h-16.25098v-14.5209h16.25098v-16.03262c0,-7.60898 2.28438,-13.19395 6.08047,-16.93965c3.7877,-3.7541 9.22988,-5.77812 15.97383,-5.77812zM32.25,131.15c-1.18418,0 -2.15,0.96582 -2.15,2.15c0,1.18418 0.96582,2.15 2.15,2.15c1.18418,0 2.15,-0.96582 2.15,-2.15c0,-1.18418 -0.96582,-2.15 -2.15,-2.15zM40.85,131.15c-1.18418,0 -2.15,0.96582 -2.15,2.15c0,1.18418 0.96582,2.15 2.15,2.15c1.18418,0 2.15,-0.96582 2.15,-2.15c0,-1.18418 -0.96582,-2.15 -2.15,-2.15zM49.45,131.15c-1.18418,0 -2.15,0.96582 -2.15,2.15c0,1.18418 0.96582,2.15 2.15,2.15c1.18418,0 2.15,-0.96582 2.15,-2.15c0,-1.18418 -0.96582,-2.15 -2.15,-2.15zM58.05,131.15c-1.18418,0 -2.15,0.96582 -2.15,2.15c0,1.18418 0.96582,2.15 2.15,2.15c1.18418,0 2.15,-0.96582 2.15,-2.15c0,-1.18418 -0.96582,-2.15 -2.15,-2.15zM66.65,131.15c-1.18418,0 -2.15,0.96582 -2.15,2.15c0,1.18418 0.96582,2.15 2.15,2.15c1.18418,0 2.15,-0.96582 2.15,-2.15c0,-1.18418 -0.96582,-2.15 -2.15,-2.15zM75.25,131.15c-1.18418,0 -2.15,0.96582 -2.15,2.15c0,1.18418 0.96582,2.15 2.15,2.15c1.18418,0 2.15,-0.96582 2.15,-2.15c0,-1.18418 -0.96582,-2.15 -2.15,-2.15zM83.85,131.15c-1.18418,0 -2.15,0.96582 -2.15,2.15c0,1.18418 0.96582,2.15 2.15,2.15c1.18418,0 2.15,-0.96582 2.15,-2.15c0,-1.18418 -0.96582,-2.15 -2.15,-2.15zM116.1,131.15c-1.18418,0 -2.15,0.96582 -2.15,2.15c0,1.18418 0.96582,2.15 2.15,2.15c1.18418,0 2.15,-0.96582 2.15,-2.15c0,-1.18418 -0.96582,-2.15 -2.15,-2.15zM124.7,131.15c-1.18418,0 -2.15,0.96582 -2.15,2.15c0,1.18418 0.96582,2.15 2.15,2.15c1.18418,0 2.15,-0.96582 2.15,-2.15c0,-1.18418 -0.96582,-2.15 -2.15,-2.15zM133.3,131.15c-1.18418,0 -2.15,0.96582 -2.15,2.15c0,1.18418 0.96582,2.15 2.15,2.15c1.18418,0 2.15,-0.96582 2.15,-2.15c0,-1.18418 -0.96582,-2.15 -2.15,-2.15zM141.9,131.15c-1.18418,0 -2.15,0.96582 -2.15,2.15c0,1.18418 0.96582,2.15 2.15,2.15c1.18418,0 2.15,-0.96582 2.15,-2.15c0,-1.18418 -0.96582,-2.15 -2.15,-2.15z">
</path>
</g>
</g>
</svg>