<svg xmlns="http://www.w3.org/2000/svg" x="0px" y="0px"
width="40" height="40"
viewBox="0 0 172 172"
style=" fill:#000000;">
<g fill="none" 
fill-rule="nonzero" 
stroke="none" 
stroke-width="1" 
stroke-linecap="butt" 
stroke-linejoin="miter" 
stroke-miterlimit="10" 
stroke-dasharray="" 
stroke-dashoffset="0" 
font-family="none" 
font-weight="none" 
font-size="none" 
text-anchor="none" 
style="mix-blend-mode: normal">
<path d="M0,172v-172h172v172z" fill="none">
</path><g id="original-icon" fill="#ecf0f1">
<path d="M30.96,13.76c-9.45834,0 -17.2,7.74166 -17.2,17.2v110.08c0,9.45834 7.74166,17.2 17.2,17.2h110.08c9.45834,0 17.2,-7.74166 17.2,-17.2v-110.08c0,-9.45834 -7.74166,-17.2 -17.2,-17.2zM30.96,20.64h110.08c5.73958,0 10.32,4.58042 10.32,10.32v110.08c0,5.73958 -4.58042,10.32 -10.32,10.32h-110.08c-5.73958,0 -10.32,-4.58042 -10.32,-10.32v-110.08c0,-5.73958 4.58042,-10.32 10.32,-10.32zM80.4839,55.01313c-3.63777,-0.00835 -6.88148,0.19494 -9.7825,1.61922c-0.00224,0.00224 -0.00448,0.00448 -0.00672,0.00672c-1.4143,0.69681 -2.41113,1.58188 -3.20484,2.63375c-0.39686,0.52593 -0.80344,0.99805 -1.02125,2.19703c-0.10891,0.59949 -0.17007,1.57096 0.45687,2.62031c0.62696,1.04935 1.88763,1.64605 2.69422,1.7536c0.56032,0.07458 1.82506,0.61291 1.94172,0.77265c0.00223,0.00448 0.00447,0.00896 0.00672,0.01344c0.00084,0.00115 0.49046,1.27969 0.63156,2.41875c0.14111,1.13906 0.13438,2.06265 0.13438,2.06265c-0.00144,0.09188 0.0008,0.18377 0.00672,0.27547c0,0 0.19928,2.9844 0.06719,6.06703c-0.05263,1.22861 -0.21153,2.32163 -0.37625,3.2989c-1.22502,-1.35247 -3.03009,-3.80171 -5.63703,-8.31781c-2.89197,-5.01275 -5.19359,-9.50703 -5.19359,-9.50703c-0.12087,-0.39155 -0.54836,-1.60973 -2.21719,-2.83531c-1.82433,-1.3446 -3.58781,-1.54531 -3.58781,-1.54531c-0.22121,-0.04437 -0.44626,-0.06688 -0.67188,-0.06719l-13.55844,0.00672c0,0 -0.81293,-0.04702 -1.78719,0.08735c-0.97426,0.13437 -2.44129,0.24372 -3.85656,1.92156c-0.00224,0.00224 -0.00448,0.00448 -0.00672,0.00672c-1.26484,1.51132 -1.18834,3.18175 -1.03469,4.12531c0.15363,0.94356 0.49719,1.65953 0.49719,1.65953c0.00663,0.01348 0.01335,0.02692 0.02015,0.04031c0,0 11.09018,23.31717 23.62313,37.04719c9.10115,9.96918 18.44261,10.1386 26.14937,10.1386h5.75125c1.46828,0 2.79643,-0.05738 4.26641,-0.91375c1.46997,-0.85638 2.45906,-2.94121 2.45906,-4.38735c0,-1.5154 0.22625,-2.70667 0.50391,-3.31906c0.19526,-0.43068 0.34984,-0.58578 0.59125,-0.71219c0.05104,0.03237 0.01808,0.01355 0.16125,0.11422c0.57265,0.4027 1.51826,1.32072 2.5464,2.46578c2.05628,2.29013 4.39034,5.43137 7.525,7.58547c2.24568,1.54454 4.36695,2.23041 5.97969,2.47922c1.01041,0.15589 1.79516,0.12586 2.35156,0.08062l12.84625,0.05375c0.0762,0.00029 0.15239,-0.00195 0.22844,-0.00672c0,0 2.2135,0.0258 4.515,-1.35047c1.15076,-0.68822 2.50798,-1.99301 2.94953,-3.89688c0.44155,-1.90387 -0.11338,-3.87659 -1.19594,-5.67734c0,-0.00224 0,-0.00448 0,-0.00672c0.188,0.31166 -0.17021,-0.32876 -0.5375,-0.92719c-0.3673,-0.59843 -0.9006,-1.40484 -1.66625,-2.40531c-1.5313,-2.00094 -3.98392,-4.80104 -7.94828,-8.4925c-0.00224,0 -0.00448,0 -0.00672,0c-2.01352,-1.87338 -3.37319,-3.19976 -3.93047,-3.93719c-0.55728,-0.73743 -0.3745,-0.35005 -0.33594,-0.5375c0.07716,-0.37489 2.49373,-3.86098 7.41078,-10.4275c2.98898,-3.99691 5.08666,-6.99768 6.47016,-9.49359c1.38349,-2.49592 2.38108,-4.6575 1.6864,-7.30328c-0.00223,-0.00448 -0.00447,-0.00896 -0.00672,-0.01344c-0.30839,-1.16141 -1.15066,-2.23193 -2.01563,-2.81515c-0.86496,-0.58322 -1.68502,-0.81132 -2.41875,-0.95406c-1.46747,-0.28548 -2.74803,-0.23515 -3.93719,-0.23515c-2.49318,0 -13.55502,0.08735 -14.46547,0.08735c-1.07579,0 -2.85467,0.48932 -3.64156,0.96078c-1.97837,1.19053 -2.5464,2.75469 -2.5464,2.75469c-0.03579,0.06607 -0.0694,0.13329 -0.10078,0.20156c0,0 -2.28184,5.05999 -5.22047,10.05797c-2.97689,5.06962 -5.17611,7.48756 -6.50375,8.60672c-0.03653,-0.19904 -0.03025,-0.03742 -0.05375,-0.31578c-0.11899,-1.41571 0.01344,-3.37197 0.01344,-5.28094c0,-5.14113 0.43578,-8.7393 0.20156,-11.91906c-0.1171,-1.58988 -0.41161,-3.22935 -1.45797,-4.73672c-1.04636,-1.50737 -2.78745,-2.48666 -4.50828,-2.9025c-1.03252,-0.24906 -2.20947,-0.89685 -6.47015,-0.94063c-0.00224,0 -0.00448,0 -0.00672,0c-1.30297,-0.01302 -2.55663,-0.03753 -3.76922,-0.04031zM84.18594,61.93344c3.77013,0.03873 2.831,0.24627 4.92485,0.7525c0.64933,0.1569 0.49203,0.15601 0.47703,0.13438c-0.01514,-0.02167 0.17563,0.33303 0.24859,1.32359c0.14592,1.9811 -0.22172,5.91997 -0.22172,11.40844c0,1.49663 -0.18059,3.63236 0.00672,5.85875c0.18714,2.22639 0.73934,5.08359 3.39969,6.80609c1.26106,0.81743 2.72531,0.86896 3.9775,0.55766c1.25219,-0.31132 2.3882,-0.9597 3.58109,-1.91485c2.38578,-1.91029 5.04684,-5.13433 8.39172,-10.83063c3.12632,-5.31721 5.40032,-10.38052 5.47578,-10.54844c0.01477,-0.01184 0.02971,-0.01997 0.04703,-0.03359c0.04296,0.00047 -0.00154,0 0.05375,0c1.28428,0 12.14265,-0.08735 14.46547,-0.08735c0.54224,0 0.73962,0.03269 1.16906,0.04703c-0.11672,0.38963 0.01307,0.14111 -0.49719,1.06156c-1.07009,1.9305 -3.04203,4.79945 -5.95953,8.70078c-4.79407,6.40229 -7.76545,8.91099 -8.64031,13.16203c-0.43743,2.12552 0.38238,4.48155 1.58563,6.07375c1.20325,1.59221 2.722,2.95629 4.73672,4.83078c3.73091,3.47407 5.91967,5.99807 7.17562,7.63922c0.62798,0.82058 1.02386,1.41328 1.26985,1.81406c0.24599,0.40078 0.18521,0.3585 0.5039,0.88688c0.20981,0.35162 0.1325,0.13702 0.16797,0.24187c-0.41246,0.11627 -0.91216,0.25625 -0.94062,0.26203l-12.6514,-0.05375c-0.22787,-0.00013 -0.45518,0.02237 -0.6786,0.06719c0,0 0.03165,0.03722 -0.645,-0.06719c-0.67676,-0.1044 -1.75308,-0.39726 -3.13766,-1.35047c-1.67102,-1.14831 -4.0103,-3.95794 -6.30219,-6.51047c-1.14594,-1.27626 -2.28878,-2.50191 -3.70875,-3.50047c-1.41997,-0.99856 -3.54473,-1.93753 -5.83859,-1.2161c-2.38125,0.74772 -4.23478,2.60608 -5.13985,4.60235c-0.6737,1.48596 -0.72827,3.03812 -0.83313,4.58219c-0.11417,0.0086 0.0172,0 -0.12765,0h-5.75125c-7.81452,0 -13.36331,0.54045 -21.07,-7.90125c-10.36641,-11.35655 -19.86414,-30.25191 -21.41265,-33.36531l11.9325,-0.00672c0.20974,0.0805 0.65861,0.24904 0.68531,0.26875c0.00447,0.00449 0.00895,0.00897 0.01344,0.01344c-0.43617,-0.31882 0.02015,0.12766 0.02015,0.12766c0.04211,0.103 0.0892,0.2039 0.1411,0.30234c0,0 2.36442,4.61925 5.35484,9.80266c2.93334,5.08153 5.07088,8.25592 7.13531,10.35359c1.03222,1.04884 2.07419,1.89001 3.46688,2.365c1.39268,0.47499 3.19099,0.30076 4.40078,-0.36281c2.47139,-1.35285 2.80344,-3.34828 3.20484,-5.09281c0.40197,-1.74699 0.56199,-3.608 0.63828,-5.38844c0.14806,-3.45584 -0.06135,-6.44671 -0.0739,-6.6314c0.00076,-0.06478 0.01649,-1.31199 -0.18141,-2.90922c-0.20262,-1.63554 -0.42859,-3.63527 -1.90812,-5.65047l-0.00672,-0.00672c-0.01032,-0.0141 -0.02328,-0.01312 -0.0336,-0.02688c1.9565,-0.2806 3.63059,-0.626 7.10844,-0.59125zM114.53453,65.30625l-0.04703,0.1075c-0.00728,0.00417 -0.00495,-0.00496 -0.01344,0c0.01454,-0.02773 0.06047,-0.1075 0.06047,-0.1075z">
</path>
</g>
</g>
</svg>